<svg aria-hidden="true" style="position: absolute; width: 0; height: 0; overflow: hidden;" version="1.1" xmlns="http://www.w3.org/2000/svg" xmlns:xlink="http://www.w3.org/1999/xlink">
    <defs>
        <symbol id="icon-arrow-left" viewBox="0 0 20 32">
            <path d="M0.588 14.588c-0.781 0.781-0.781 2.050 0 2.831l12 12c0.781 0.781 2.050 0.781 2.831 0s0.781-2.050 0-2.831l-10.588-10.588 10.581-10.588c0.781-0.781 0.781-2.050 0-2.831s-2.050-0.781-2.831 0l-12 12z"></path>
        </symbol>
        <symbol id="icon-arrow-right" viewBox="0 0 20 32">
            <path d="M19.413 14.588c0.781 0.781 0.781 2.050 0 2.831l-12 12c-0.781 0.781-2.050 0.781-2.831 0s-0.781-2.050 0-2.831l10.588-10.588-10.581-10.588c-0.781-0.781-0.781-2.050 0-2.831s2.050-0.781 2.831 0l12 12z"></path>
        </symbol>
        <symbol id="icon-arrow-down" viewBox="0 0 32 32">
            <path d="M14.588 25.413c0.781 0.781 2.050 0.781 2.831 0l12-12c0.781-0.781 0.781-2.050 0-2.831s-2.050-0.781-2.831 0l-10.588 10.588-10.588-10.581c-0.781-0.781-2.050-0.781-2.831 0s-0.781 2.050 0 2.831l12 12z"></path>
        </symbol>
        <symbol id="icon-arrow-up" viewBox="0 0 32 32">
            <path d="M14.588 6.588c0.781-0.781 2.050-0.781 2.831 0l12 12c0.781 0.781 0.781 2.050 0 2.831s-2.050 0.781-2.831 0l-10.588-10.588-10.588 10.581c-0.781 0.781-2.050 0.781-2.831 0s-0.781-2.050 0-2.831l12-12z"></path>
        </symbol>
        <symbol id="icon-search" viewBox="0 0 32 32">
            <path d="M26 13c0 2.869-0.931 5.519-2.5 7.669l7.913 7.919c0.781 0.781 0.781 2.050 0 2.831s-2.050 0.781-2.831 0l-7.912-7.919c-2.15 1.575-4.8 2.5-7.669 2.5-7.181 0-13-5.819-13-13s5.819-13 13-13 13 5.819 13 13zM13 22c4.971 0 9-4.029 9-9s-4.029-9-9-9v0c-4.971 0-9 4.029-9 9s4.029 9 9 9v0z"></path>
        </symbol>
        <symbol id="icon-like" viewBox="0 0 32 32">
            <path d="M20.238 2.175c-2.387-0.681-4.881 0.7-5.563 3.087l-0.356 1.25c-0.231 0.813-0.65 1.563-1.219 2.188l-3.206 3.525c-0.556 0.613-0.512 1.563 0.1 2.119s1.563 0.512 2.119-0.1l3.206-3.525c0.881-0.969 1.525-2.125 1.881-3.381l0.356-1.25c0.225-0.794 1.056-1.256 1.856-1.031s1.256 1.056 1.031 1.856l-0.356 1.25c-0.356 1.244-0.919 2.419-1.663 3.469-0.325 0.456-0.363 1.056-0.106 1.556s0.769 0.813 1.331 0.813h8.35c0.55 0 1 0.45 1 1 0 0.425-0.269 0.794-0.65 0.938-0.462 0.175-0.813 0.562-0.931 1.044s0.006 0.988 0.331 1.356c0.156 0.175 0.25 0.406 0.25 0.663 0 0.488-0.35 0.894-0.813 0.981-0.512 0.1-0.944 0.456-1.125 0.95s-0.1 1.044 0.225 1.456c0.131 0.169 0.212 0.381 0.212 0.619 0 0.419-0.262 0.788-0.637 0.931-0.719 0.281-1.106 1.056-0.9 1.8 0.025 0.081 0.038 0.175 0.038 0.269 0 0.55-0.45 1-1 1h-6.094c-0.788 0-1.563-0.231-2.219-0.669l-3.856-2.569c-0.688-0.462-1.619-0.275-2.081 0.419s-0.275 1.619 0.419 2.081l3.856 2.569c1.15 0.769 2.5 1.175 3.881 1.175h6.094c2.169 0 3.931-1.725 4-3.875 0.913-0.731 1.5-1.856 1.5-3.125 0-0.281-0.031-0.55-0.081-0.813 0.962-0.731 1.581-1.887 1.581-3.188 0-0.406-0.063-0.8-0.175-1.169 0.725-0.738 1.175-1.738 1.175-2.844 0-2.206-1.788-4-4-4h-5.769c0.294-0.65 0.544-1.325 0.738-2.012l0.356-1.25c0.681-2.388-0.7-4.881-3.087-5.563zM2 12c-1.106 0-2 0.894-2 2v14c0 1.106 0.894 2 2 2h4c1.106 0 2-0.894 2-2v-14c0-1.106-0.894-2-2-2h-4z"></path>
        </symbol>
        <symbol id="icon-like-solid" viewBox="0 0 512 512">
            <path d="M313.4 32.9c26 5.2 42.9 30.5 37.7 56.5l-2.3 11.4c-5.3 26.7-15.1 52.1-28.8 75.2H464c26.5 0 48 21.5 48 48c0 18.5-10.5 34.6-25.9 42.6C497 275.4 504 288.9 504 304c0 23.4-16.8 42.9-38.9 47.1c4.4 7.3 6.9 15.8 6.9 24.9c0 21.3-13.9 39.4-33.1 45.6c.7 3.3 1.1 6.8 1.1 10.4c0 26.5-21.5 48-48 48H294.5c-19 0-37.5-5.6-53.3-16.1l-38.5-25.7C176 420.4 160 390.4 160 358.3V320 272 247.1c0-29.2 13.3-56.7 36-75l7.4-5.9c26.5-21.2 44.6-51 51.2-84.2l2.3-11.4c5.2-26 30.5-42.9 56.5-37.7zM32 192H96c17.7 0 32 14.3 32 32V448c0 17.7-14.3 32-32 32H32c-17.7 0-32-14.3-32-32V224c0-17.7 14.3-32 32-32z"/>
        </symbol>
        <symbol id="icon-dislike-solid" viewBox="0 0 512 512">
            <path d="M313.4 479.1c26-5.2 42.9-30.5 37.7-56.5l-2.3-11.4c-5.3-26.7-15.1-52.1-28.8-75.2H464c26.5 0 48-21.5 48-48c0-18.5-10.5-34.6-25.9-42.6C497 236.6 504 223.1 504 208c0-23.4-16.8-42.9-38.9-47.1c4.4-7.3 6.9-15.8 6.9-24.9c0-21.3-13.9-39.4-33.1-45.6c.7-3.3 1.1-6.8 1.1-10.4c0-26.5-21.5-48-48-48H294.5c-19 0-37.5 5.6-53.3 16.1L202.7 73.8C176 91.6 160 121.6 160 153.7V192v48 24.9c0 29.2 13.3 56.7 36 75l7.4 5.9c26.5 21.2 44.6 51 51.2 84.2l2.3 11.4c5.2 26 30.5 42.9 56.5 37.7zM32 384H96c17.7 0 32-14.3 32-32V128c0-17.7-14.3-32-32-32H32C14.3 96 0 110.3 0 128V352c0 17.7 14.3 32 32 32z"/>
        </symbol>
        <symbol id="icon-clock" viewBox="0 0 32 32">
            <path d="M29 16c0 7.18-5.82 13-13 13s-13-5.82-13-13v0c0-7.18 5.82-13 13-13s13 5.82 13 13v0zM0 16c0 8.837 7.163 16 16 16s16-7.163 16-16v0c0-8.837-7.163-16-16-16s-16 7.163-16 16v0zM14.5 7.5v8.5c0 0.5 0.25 0.969 0.669 1.25l6 4c0.688 0.462 1.619 0.275 2.081-0.419s0.275-1.619-0.419-2.081l-5.331-3.55v-7.7c0-0.831-0.669-1.5-1.5-1.5s-1.5 0.669-1.5 1.5z"></path>
        </symbol>
        <symbol id="icon-clock-solid" viewBox="0 0 512 512">
            <path d="M256 0a256 256 0 1 1 0 512A256 256 0 1 1 256 0zM232 120V256c0 8 4 15.5 10.7 20l96 64c11 7.4 25.9 4.4 33.3-6.7s4.4-25.9-6.7-33.3L280 243.2V120c0-13.3-10.7-24-24-24s-24 10.7-24 24z"/>
        </symbol>
        <symbol id="icon-user" viewBox="0 0 32 32">
            <path d="M25.406 24.975c-1.194-2.919-4.063-4.975-7.406-4.975h-4c-3.344 0-6.213 2.056-7.406 4.975-2.225-2.337-3.594-5.494-3.594-8.975 0-7.181 5.819-13 13-13s13 5.819 13 13c0 3.481-1.369 6.637-3.594 8.975zM22.9 27.019c-2 1.256-4.363 1.981-6.9 1.981s-4.9-0.725-6.906-1.981c0.456-2.294 2.481-4.019 4.906-4.019h4c2.425 0 4.45 1.725 4.906 4.019zM16 32c8.837 0 16-7.163 16-16s-7.163-16-16-16v0c-8.837 0-16 7.163-16 16s7.163 16 16 16v0zM16 15c-1.381 0-2.5-1.119-2.5-2.5s1.119-2.5 2.5-2.5v0c1.381 0 2.5 1.119 2.5 2.5s-1.119 2.5-2.5 2.5v0zM10.5 12.5c0 3.038 2.462 5.5 5.5 5.5s5.5-2.462 5.5-5.5v0c0-3.038-2.462-5.5-5.5-5.5s-5.5 2.462-5.5 5.5v0z"></path>
        </symbol>
        <symbol id="icon-twitter" viewBox="0 0 32 32">
            <path d="M28.712 9.481c0.019 0.281 0.019 0.569 0.019 0.85 0 8.669-6.6 18.663-18.663 18.663-3.719 0-7.169-1.075-10.069-2.944 0.525 0.063 1.038 0.081 1.581 0.081 3.069 0 5.888-1.038 8.144-2.8-2.881-0.063-5.3-1.95-6.131-4.55 0.406 0.063 0.813 0.1 1.237 0.1 0.588 0 1.175-0.081 1.725-0.225-3.006-0.606-5.256-3.25-5.256-6.438v-0.081c0.875 0.488 1.888 0.794 2.963 0.831-1.769-1.175-2.925-3.188-2.925-5.463 0-1.219 0.325-2.338 0.894-3.313 3.231 3.981 8.081 6.581 13.525 6.862-0.1-0.488-0.162-0.994-0.162-1.5 0-3.612 2.925-6.556 6.556-6.556 1.887 0 3.594 0.794 4.794 2.069 1.481-0.281 2.906-0.831 4.163-1.581-0.488 1.525-1.525 2.8-2.881 3.612 1.319-0.144 2.6-0.506 3.775-1.013-0.894 1.3-2.012 2.456-3.288 3.394z"></path>
        </symbol>
        <symbol id="icon-coment" viewBox="0 0 32 32">
            <path d="M7.725 24.456c0.806-0.587 1.85-0.738 2.787-0.4 1.656 0.6 3.512 0.944 5.488 0.944 7.794 0 13-5.031 13-10s-5.206-10-13-10-13 5.031-13 10c0 2 0.775 3.925 2.231 5.575 0.537 0.606 0.8 1.406 0.737 2.219-0.088 1.131-0.356 2.169-0.706 3.087 1.063-0.494 1.944-1.044 2.462-1.419zM1.325 26.994c0.113-0.169 0.219-0.337 0.319-0.506 0.625-1.038 1.219-2.4 1.337-3.931-1.875-2.131-2.981-4.738-2.981-7.556 0-7.181 7.162-13 16-13s16 5.819 16 13-7.163 13-16 13c-2.319 0-4.519-0.4-6.506-1.119-0.744 0.544-1.956 1.288-3.394 1.913-0.944 0.413-2.019 0.788-3.131 1.006-0.050 0.012-0.1 0.019-0.15 0.031-0.275 0.050-0.544 0.094-0.825 0.119-0.012 0-0.031 0.006-0.044 0.006-0.319 0.031-0.637 0.050-0.956 0.050-0.406 0-0.769-0.244-0.925-0.619s-0.069-0.8 0.213-1.087c0.256-0.262 0.487-0.544 0.706-0.844 0.106-0.144 0.206-0.288 0.3-0.431 0.006-0.012 0.012-0.019 0.019-0.031z"></path>
        </symbol>
        <symbol id="icon-comments" viewBox="7 -3 60 60" preserveAspectRatio="xMidYMid meet">
            <path d="M41,35.82A19.73,19.73,0,0,0,49,30a12.39,12.39,0,0,0,0-16,19.73,19.73,0,0,0-8-5.8A28,28,0,0,0,30,6.11,28,28,0,0,0,19,8.24a19.63,19.63,0,0,0-8,5.8,12.56,12.56,0,0,0-2.93,8,12.19,12.19,0,0,0,2.21,7,18.1,18.1,0,0,0,6.06,5.51,14.68,14.68,0,0,1-.63,1.37A8.11,8.11,0,0,1,15,37.06l-.7.9a10.78,10.78,0,0,1-.81.92c-.37.39-.61.65-.71.78s0,0-.13.14-.13.16-.14.15,0,0-.12.16l-.11.17-.08.15a.82.82,0,0,0-.06.19,1.23,1.23,0,0,0,0,.2.45.45,0,0,0,0,.2,1.07,1.07,0,0,0,.35.66,1,1,0,0,0,.64.25h.09c1-.15,1.93-.32,2.68-.5a26.25,26.25,0,0,0,8.64-4A31.35,31.35,0,0,0,30,38,28,28,0,0,0,41,35.82Z"/>
            <path d="M61.65,37a12.11,12.11,0,0,0-.13-14.13,18.38,18.38,0,0,0-6.34-5.54,15.95,15.95,0,0,1-1.37,12.63,20.94,20.94,0,0,1-6,6.59,27.71,27.71,0,0,1-8.2,4A33,33,0,0,1,30,41.93c-.62,0-1.53,0-2.74-.13A26.11,26.11,0,0,0,42,45.9a31.41,31.41,0,0,0,5.47-.49,26.25,26.25,0,0,0,8.64,4,26.9,26.9,0,0,0,2.68.49.92.92,0,0,0,.68-.21,1.15,1.15,0,0,0,.4-.69c0-.12,0-.19,0-.2s0-.08,0-.2l-.06-.19-.08-.15-.11-.17a1.62,1.62,0,0,0-.12-.16l-.14-.15a1,1,0,0,0-.13-.14c-.1-.13-.34-.39-.71-.78a10.78,10.78,0,0,1-.81-.92L57,45a7.7,7.7,0,0,1-.78-1.2c-.21-.41-.43-.87-.63-1.36A18.36,18.36,0,0,0,61.65,37Z"/>
        </symbol>
        <symbol id="icon-fire" viewBox="0 0 28 32">
            <path d="M9.956 0.338c0.488-0.456 1.244-0.45 1.731 0.006 1.725 1.619 3.344 3.362 4.856 5.25 0.688-0.9 1.469-1.881 2.313-2.681 0.494-0.462 1.256-0.462 1.75 0.006 2.163 2.063 3.994 4.787 5.281 7.375 1.269 2.55 2.113 5.156 2.113 6.994 0 7.975-6.238 14.712-14 14.712-7.85 0-14-6.744-14-14.719 0-2.4 1.113-5.331 2.837-8.231 1.744-2.944 4.206-6.013 7.119-8.713zM14.106 26c1.581 0 2.981-0.438 4.3-1.313 2.631-1.837 3.337-5.512 1.756-8.4-0.281-0.563-1-0.6-1.406-0.125l-1.575 1.831c-0.413 0.475-1.156 0.462-1.544-0.031-1.031-1.313-2.875-3.656-3.925-4.988-0.394-0.5-1.144-0.506-1.544-0.006-2.113 2.656-3.175 4.331-3.175 6.213 0.006 4.281 3.169 6.819 7.112 6.819z"></path>
        </symbol>
        <symbol id="icon-x-twitter" viewBox="0 0 32 32">
            <path d="M24.325 3h4.412l-9.637 11.012 11.338 14.988h-8.875l-6.956-9.087-7.95 9.087h-4.419l10.306-11.781-10.869-14.219h9.1l6.281 8.306 7.269-8.306zM22.775 26.363h2.444l-15.775-20.863h-2.625l15.956 20.863z"></path>
        </symbol>
        <symbol id="icon-youtube" viewBox="0 0 36 32">
            <path d="M34.356 7.756c-0.394-1.481-1.55-2.644-3.019-3.037-2.663-0.719-13.338-0.719-13.338-0.719s-10.675 0-13.338 0.719c-1.469 0.394-2.625 1.556-3.019 3.037-0.713 2.681-0.713 8.269-0.713 8.269s0 5.587 0.713 8.269c0.394 1.481 1.55 2.594 3.019 2.988 2.662 0.719 13.338 0.719 13.338 0.719s10.675 0 13.337-0.719c1.469-0.394 2.625-1.512 3.019-2.988 0.712-2.681 0.712-8.269 0.712-8.269s0-5.588-0.712-8.269zM14.512 21.1v-10.15l8.919 5.075-8.919 5.075z"></path>
        </symbol>
        <symbol id="icon-instagram" viewBox="0 0 28 32">
            <path d="M14.006 8.813c-3.975 0-7.181 3.206-7.181 7.181s3.206 7.181 7.181 7.181 7.181-3.206 7.181-7.181-3.206-7.181-7.181-7.181zM14.006 20.663c-2.569 0-4.669-2.094-4.669-4.669s2.094-4.669 4.669-4.669 4.669 2.094 4.669 4.669-2.1 4.669-4.669 4.669zM23.156 8.519c0 0.931-0.75 1.675-1.675 1.675-0.931 0-1.675-0.75-1.675-1.675s0.75-1.675 1.675-1.675 1.675 0.75 1.675 1.675zM27.913 10.219c-0.106-2.244-0.619-4.231-2.262-5.869-1.637-1.638-3.625-2.15-5.869-2.263-2.313-0.131-9.244-0.131-11.556 0-2.237 0.106-4.225 0.619-5.869 2.256s-2.15 3.625-2.263 5.869c-0.131 2.313-0.131 9.244 0 11.556 0.106 2.244 0.619 4.231 2.263 5.869s3.625 2.15 5.869 2.262c2.313 0.131 9.244 0.131 11.556 0 2.244-0.106 4.231-0.619 5.869-2.262 1.637-1.637 2.15-3.625 2.262-5.869 0.131-2.313 0.131-9.238 0-11.55zM24.925 24.25c-0.488 1.225-1.431 2.169-2.663 2.663-1.844 0.731-6.219 0.563-8.256 0.563s-6.419 0.163-8.256-0.563c-1.225-0.488-2.169-1.431-2.663-2.663-0.731-1.844-0.563-6.219-0.563-8.256s-0.163-6.419 0.563-8.256c0.487-1.225 1.431-2.169 2.663-2.662 1.844-0.731 6.219-0.563 8.256-0.563s6.419-0.162 8.256 0.563c1.225 0.487 2.169 1.431 2.663 2.662 0.731 1.844 0.563 6.219 0.563 8.256s0.169 6.419-0.563 8.256z"></path>
        </symbol>
        <symbol id="icon-square-facebook" viewBox="0 0 28 32">
            <path d="M4 2c-2.206 0-4 1.794-4 4v20c0 2.206 1.794 4 4 4h6.137v-9.113h-3.3v-4.887h3.3v-2.106c0-5.444 2.463-7.969 7.813-7.969 1.012 0 2.762 0.2 3.481 0.4v4.425c-0.375-0.037-1.031-0.063-1.85-0.063-2.625 0-3.637 0.994-3.637 3.575v1.738h5.225l-0.9 4.887h-4.331v9.113h8.063c2.206 0 4-1.794 4-4v-20c0-2.206-1.794-4-4-4h-20z"></path>
        </symbol>
        <symbol id="icon-facebook" viewBox="0 0 32 32">
            <path d="M32 16c0-8.838-7.163-16-16-16s-16 7.162-16 16c0 7.5 5.169 13.8 12.137 15.531v-10.644h-3.3v-4.887h3.3v-2.106c0-5.444 2.463-7.969 7.813-7.969 1.012 0 2.762 0.2 3.481 0.4v4.425c-0.375-0.037-1.031-0.063-1.85-0.063-2.625 0-3.637 0.994-3.637 3.575v1.738h5.225l-0.9 4.887h-4.331v10.994c7.925-0.956 14.063-7.7 14.063-15.881v0z"></path>
        </symbol>
        <symbol id="icon-light" viewBox="0 0 24 24">
            <g stroke="currentColor" stroke-width="2" stroke-linecap="round">
                <line x1="12" y1="17" x2="12" y2="20" transform="rotate(0,12,12)" />
                <line x1="12" y1="17" x2="12" y2="20" transform="rotate(45,12,12)" />
                <line x1="12" y1="17" x2="12" y2="20" transform="rotate(90,12,12)" />
                <line x1="12" y1="17" x2="12" y2="20" transform="rotate(135,12,12)" />
                <line x1="12" y1="17" x2="12" y2="20" transform="rotate(180,12,12)" />
                <line x1="12" y1="17" x2="12" y2="20" transform="rotate(225,12,12)" />
                <line x1="12" y1="17" x2="12" y2="20" transform="rotate(270,12,12)" />
                <line x1="12" y1="17" x2="12" y2="20" transform="rotate(315,12,12)" />
            </g>
            <circle fill="currentColor" cx="12" cy="12" r="5" />
        </symbol>
        <symbol id="icon-dark" viewBox="0 0 24 24">
            <path fill="currentColor" d="M15.1,14.9c-3-0.5-5.5-3-6-6C8.8,7.1,9.1,5.4,9.9,4c0.4-0.8-0.4-1.7-1.2-1.4C4.6,4,1.8,7.9,2,12.5c0.2,5.1,4.4,9.3,9.5,9.5c4.5,0.2,8.5-2.6,9.9-6.6c0.3-0.8-0.6-1.7-1.4-1.2C18.6,14.9,16.9,15.2,15.1,14.9z" />
        </symbol>
        <symbol id="icon-film-solid" viewBox="0 0 32 32">
            <path d="M0 6c0-2.206 1.794-4 4-4h24c2.206 0 4 1.794 4 4v20c0 2.206-1.794 4-4 4h-24c-2.206 0-4-1.794-4-4v-20zM3 23v2c0 0.55 0.45 1 1 1h2c0.55 0 1-0.45 1-1v-2c0-0.55-0.45-1-1-1h-2c-0.55 0-1 0.45-1 1zM26 22c-0.55 0-1 0.45-1 1v2c0 0.55 0.45 1 1 1h2c0.55 0 1-0.45 1-1v-2c0-0.55-0.45-1-1-1h-2zM3 15v2c0 0.55 0.45 1 1 1h2c0.55 0 1-0.45 1-1v-2c0-0.55-0.45-1-1-1h-2c-0.55 0-1 0.45-1 1zM26 14c-0.55 0-1 0.45-1 1v2c0 0.55 0.45 1 1 1h2c0.55 0 1-0.45 1-1v-2c0-0.55-0.45-1-1-1h-2zM3 7v2c0 0.55 0.45 1 1 1h2c0.55 0 1-0.45 1-1v-2c0-0.55-0.45-1-1-1h-2c-0.55 0-1 0.45-1 1zM26 6c-0.55 0-1 0.45-1 1v2c0 0.55 0.45 1 1 1h2c0.55 0 1-0.45 1-1v-2c0-0.55-0.45-1-1-1h-2zM10 8v4c0 1.106 0.894 2 2 2h8c1.106 0 2-0.894 2-2v-4c0-1.106-0.894-2-2-2h-8c-1.106 0-2 0.894-2 2zM12 18c-1.106 0-2 0.894-2 2v4c0 1.106 0.894 2 2 2h8c1.106 0 2-0.894 2-2v-4c0-1.106-0.894-2-2-2h-8z"></path>
        </symbol>
        <symbol id="icon-circle-dot-solid" viewBox="0 0 32 32">
            <path d="M16 32c8.837 0 16-7.163 16-16s-7.163-16-16-16v0c-8.837 0-16 7.163-16 16s7.163 16 16 16v0zM16 10c3.314 0 6 2.686 6 6s-2.686 6-6 6v0c-3.314 0-6-2.686-6-6s2.686-6 6-6v0z"></path>
        </symbol>
        <symbol id="icon-dot" viewBox="0 0 512 512">
            <path d="M256 512A256 256 0 1 0 256 0a256 256 0 1 0 0 512z"/>
        </symbol>
        <symbol id="icon-reply-solid" viewBox="0 0 32 32">
            <path d="M12.813 2.175c0.719 0.319 1.188 1.038 1.188 1.825v4h7c6.075 0 11 4.925 11 11 0 7.081-5.094 10.244-6.262 10.881-0.156 0.087-0.331 0.119-0.506 0.119-0.681 0-1.231-0.556-1.231-1.231 0-0.469 0.269-0.9 0.613-1.219 0.587-0.55 1.387-1.65 1.387-3.544 0-3.313-2.688-6-6-6h-6v4c0 0.788-0.463 1.506-1.188 1.825s-1.563 0.188-2.15-0.337l-10-9c-0.419-0.387-0.662-0.925-0.662-1.494s0.244-1.106 0.662-1.488l10-9c0.588-0.531 1.431-0.663 2.15-0.337z"></path>
        </symbol>
        <symbol id="icon-reply" viewBox="0 0 16 16">
            <path d="M6.598 5.013a.144.144 0 0 1 .202.134V6.3a.5.5 0 0 0 .5.5c.667 0 2.013.005 3.3.822.984.624 1.99 1.76 2.595 3.876-1.02-.983-2.185-1.516-3.205-1.799a8.7 8.7 0 0 0-1.921-.306 7 7 0 0 0-.798.008h-.013l-.005.001h-.001L7.3 9.9l-.05-.498a.5.5 0 0 0-.45.498v1.153c0 .108-.11.176-.202.134L2.614 8.254l-.042-.028a.147.147 0 0 1 0-.252l.042-.028zM7.8 10.386q.103 0 .223.006c.434.02 1.034.086 1.7.271 1.326.368 2.896 1.202 3.94 3.08a.5.5 0 0 0 .933-.305c-.464-3.71-1.886-5.662-3.46-6.66-1.245-.79-2.527-.942-3.336-.971v-.66a1.144 1.144 0 0 0-1.767-.96l-3.994 2.94a1.147 1.147 0 0 0 0 1.946l3.994 2.94a1.144 1.144 0 0 0 1.767-.96z"/>
        </symbol>
        <symbol id="icon-comment-dots-regular" viewBox="0 0 32 32">
            <path d="M10.512 24.056c-0.938-0.337-1.981-0.194-2.787 0.4-0.513 0.375-1.394 0.925-2.463 1.419 0.35-0.919 0.619-1.956 0.706-3.087 0.063-0.806-0.206-1.606-0.737-2.219-1.456-1.644-2.231-3.569-2.231-5.569 0-4.969 5.206-10 13-10s13 5.031 13 10-5.206 10-13 10c-1.975 0-3.831-0.344-5.488-0.944zM1.644 26.488c-0.1 0.169-0.206 0.337-0.319 0.506l-0.019 0.031c-0.1 0.144-0.2 0.288-0.3 0.431-0.219 0.294-0.456 0.581-0.706 0.844-0.287 0.288-0.369 0.712-0.212 1.087s0.519 0.619 0.925 0.619c0.319 0 0.637-0.019 0.956-0.050l0.044-0.006c0.275-0.031 0.55-0.069 0.825-0.119 0.050-0.006 0.1-0.019 0.15-0.031 1.113-0.219 2.181-0.594 3.131-1.006 1.431-0.625 2.65-1.369 3.394-1.913 1.988 0.719 4.188 1.119 6.506 1.119 8.837 0 16-5.819 16-13s-7.181-13-16.019-13-16 5.819-16 13c0 2.819 1.106 5.425 2.981 7.556-0.119 1.531-0.712 2.894-1.337 3.931zM9 17c1.105 0 2-0.895 2-2s-0.895-2-2-2v0c-1.105 0-2 0.895-2 2s0.895 2 2 2v0zM18 15c0-1.105-0.895-2-2-2s-2 0.895-2 2v0c0 1.105 0.895 2 2 2s2-0.895 2-2v0zM23 17c1.105 0 2-0.895 2-2s-0.895-2-2-2v0c-1.105 0-2 0.895-2 2s0.895 2 2 2v0z"></path>
        </symbol>
        <symbol id="icon-house" viewBox="0 0 36 32">
            <path d="M35.987 15.969c0 1.125-0.938 2.006-2 2.006h-2l0.044 10.012c0 0.169-0.013 0.337-0.031 0.506v1.006c0 1.381-1.119 2.5-2.5 2.5h-1c-0.069 0-0.137 0-0.206-0.006-0.087 0.006-0.175 0.006-0.262 0.006h-3.531c-1.381 0-2.5-1.119-2.5-2.5v-5.5c0-1.106-0.894-2-2-2h-4c-1.106 0-2 0.894-2 2v5.5c0 1.381-1.119 2.5-2.5 2.5h-3.494c-0.094 0-0.188-0.006-0.281-0.012-0.075 0.006-0.15 0.012-0.225 0.012h-1c-1.381 0-2.5-1.119-2.5-2.5v-7c0-0.056 0-0.119 0.006-0.175v-4.35h-2.006c-1.125 0-2-0.875-2-2.006 0-0.563 0.188-1.063 0.625-1.5l16.025-13.969c0.438-0.438 0.938-0.5 1.375-0.5s0.938 0.125 1.313 0.438l15.962 14.031c0.5 0.438 0.75 0.938 0.688 1.5z"></path>
        </symbol>
        <symbol id="icon-arroba" viewBox="0 0 32 32">
            <path d="M16 4c-6.625 0-12 5.375-12 12s5.375 12 12 12c1.106 0 2 0.894 2 2s-0.894 2-2 2c-8.838 0-16-7.163-16-16s7.162-16 16-16 16 7.162 16 16v2c0 3.313-2.688 6-6 6-1.831 0-3.475-0.825-4.575-2.119-1.425 1.313-3.331 2.119-5.425 2.119-4.419 0-8-3.581-8-8s3.581-8 8-8c1.744 0 3.356 0.556 4.669 1.506 0.356-0.313 0.819-0.506 1.331-0.506 1.106 0 2 0.894 2 2v7c0 1.106 0.894 2 2 2s2-0.894 2-2v-2c0-6.625-5.375-12-12-12zM20 16c0-2.209-1.791-4-4-4s-4 1.791-4 4v0c0 2.209 1.791 4 4 4s4-1.791 4-4v0z"></path>
        </symbol>
        <symbol id="icon-mail" viewBox="0 0 32 32">
            <path d="M4 7c-0.55 0-1 0.45-1 1v1.381l10.781 8.85c1.294 1.063 3.15 1.063 4.444 0l10.775-8.85v-1.381c0-0.55-0.45-1-1-1h-24zM3 13.262v10.738c0 0.55 0.45 1 1 1h24c0.55 0 1-0.45 1-1v-10.738l-8.875 7.287c-2.4 1.969-5.856 1.969-8.25 0l-8.875-7.287zM0 8c0-2.206 1.794-4 4-4h24c2.206 0 4 1.794 4 4v16c0 2.206-1.794 4-4 4h-24c-2.206 0-4-1.794-4-4v-16z"></path>
        </symbol>
        <symbol viewBox="0 0 512 512" id="icon-mail-solid">
            <path d="M48 64C21.5 64 0 85.5 0 112c0 15.1 7.1 29.3 19.2 38.4L236.8 313.6c11.4 8.5 27 8.5 38.4 0L492.8 150.4c12.1-9.1 19.2-23.3 19.2-38.4c0-26.5-21.5-48-48-48H48zM0 176V384c0 35.3 28.7 64 64 64H448c35.3 0 64-28.7 64-64V176L294.4 339.2c-22.8 17.1-54 17.1-76.8 0L0 176z"/>
        </symbol>
        <symbol id="icon-calendar" viewBox="0 0 28 32">
            <path d="M9.5 1.5c0-0.831-0.669-1.5-1.5-1.5s-1.5 0.669-1.5 1.5v2.5h-2.5c-2.206 0-4 1.794-4 4v20c0 2.206 1.794 4 4 4h20c2.206 0 4-1.794 4-4v-20c0-2.206-1.794-4-4-4h-2.5v-2.5c0-0.831-0.669-1.5-1.5-1.5s-1.5 0.669-1.5 1.5v2.5h-9v-2.5zM3 12h22v16c0 0.55-0.45 1-1 1h-20c-0.55 0-1-0.45-1-1v-16z"></path>
        </symbol>
        <symbol id="icon-pinterest-circle" viewBox="0 0 31 32">
            <path d="M31 16c0 8.563-6.938 15.5-15.5 15.5-1.6 0-3.137-0.244-4.588-0.694 0.631-1.031 1.575-2.719 1.925-4.063 0.188-0.725 0.963-3.688 0.963-3.688 0.506 0.962 1.981 1.781 3.55 1.781 4.675 0 8.044-4.3 8.044-9.644 0-5.119-4.181-8.95-9.556-8.95-6.688 0-10.244 4.488-10.244 9.381 0 2.275 1.213 5.106 3.144 6.006 0.294 0.137 0.45 0.075 0.519-0.206 0.050-0.212 0.313-1.269 0.431-1.756 0.037-0.156 0.019-0.294-0.106-0.444-0.631-0.781-1.144-2.206-1.144-3.537 0-3.419 2.588-6.725 7-6.725 3.806 0 6.475 2.594 6.475 6.306 0 4.194-2.119 7.1-4.875 7.1-1.519 0-2.662-1.256-2.294-2.8 0.438-1.844 1.281-3.831 1.281-5.162 0-1.188-0.637-2.181-1.963-2.181-1.556 0-2.806 1.606-2.806 3.762 0 1.375 0.463 2.3 0.463 2.3s-1.531 6.488-1.813 7.7c-0.313 1.337-0.188 3.225-0.056 4.45-5.763-2.256-9.85-7.869-9.85-14.438 0-8.563 6.938-15.5 15.5-15.5s15.5 6.938 15.5 15.5z"></path>
        </symbol>
        <symbol id="icon-telegram" viewBox="0 0 31 32">
            <path d="M15.5 0.5c-8.563 0-15.5 6.938-15.5 15.5s6.938 15.5 15.5 15.5 15.5-6.938 15.5-15.5-6.938-15.5-15.5-15.5zM22.688 11.044c-0.231 2.45-1.244 8.4-1.756 11.144-0.219 1.163-0.644 1.55-1.056 1.587-0.9 0.081-1.581-0.594-2.456-1.169-1.363-0.894-2.137-1.45-3.456-2.325-1.531-1.006-0.537-1.563 0.331-2.469 0.231-0.238 4.194-3.844 4.269-4.169 0.012-0.044 0.019-0.194-0.075-0.275s-0.225-0.050-0.319-0.031q-0.206 0.044-6.537 4.319-0.925 0.637-1.681 0.619c-0.556-0.012-1.619-0.313-2.412-0.569-0.969-0.313-1.744-0.481-1.675-1.019q0.050-0.419 1.156-0.856 6.775-2.95 9.037-3.894c4.306-1.787 5.2-2.1 5.781-2.113 0.131 0 0.413 0.031 0.6 0.181 0.119 0.105 0.199 0.251 0.218 0.416l0 0.003c0.023 0.134 0.037 0.289 0.037 0.447 0 0.061-0.002 0.121-0.006 0.18l0-0.008z"></path>
        </symbol>
        <symbol id="icon-whatsapp" viewBox="0 0 28 32">
            <path d="M23.806 6.069c-2.619-2.625-6.106-4.069-9.813-4.069-7.65 0-13.875 6.225-13.875 13.875 0 2.444 0.637 4.831 1.85 6.938l-1.969 7.188 7.356-1.931c2.025 1.106 4.306 1.688 6.631 1.688h0.006c7.644 0 14.006-6.225 14.006-13.875 0-3.706-1.575-7.188-4.194-9.813zM13.994 27.419c-2.075 0-4.106-0.556-5.875-1.606l-0.419-0.25-4.362 1.144 1.162-4.256-0.275-0.438c-1.156-1.837-1.763-3.956-1.763-6.137 0-6.356 5.175-11.531 11.538-11.531 3.081 0 5.975 1.2 8.15 3.381s3.512 5.075 3.506 8.156c0 6.362-5.306 11.537-11.662 11.537zM20.319 18.781c-0.344-0.175-2.050-1.012-2.369-1.125-0.319-0.119-0.55-0.175-0.781 0.175s-0.894 1.125-1.1 1.363c-0.2 0.231-0.406 0.262-0.75 0.087-2.037-1.019-3.375-1.819-4.719-4.125-0.356-0.613 0.356-0.569 1.019-1.894 0.113-0.231 0.056-0.431-0.031-0.606s-0.781-1.881-1.069-2.575c-0.281-0.675-0.569-0.581-0.781-0.594-0.2-0.012-0.431-0.012-0.662-0.012s-0.606 0.088-0.925 0.431c-0.319 0.35-1.213 1.188-1.213 2.894s1.244 3.356 1.412 3.587c0.175 0.231 2.444 3.731 5.925 5.238 2.2 0.95 3.063 1.031 4.162 0.869 0.669-0.1 2.050-0.837 2.337-1.65s0.288-1.506 0.2-1.65c-0.081-0.156-0.313-0.244-0.656-0.413z"></path>
        </symbol>
        <symbol id="icon-pinterest" viewBox="0 0 384 512">
            <path d="M204 6.5C101.4 6.5 0 74.9 0 185.6 0 256 39.6 296 63.6 296c9.9 0 15.6-27.6 15.6-35.4 0-9.3-23.7-29.1-23.7-67.8 0-80.4 61.2-137.4 140.4-137.4 68.1 0 118.5 38.7 118.5 109.8 0 53.1-21.3 152.7-90.3 152.7-24.9 0-46.2-18-46.2-43.8 0-37.8 26.4-74.4 26.4-113.4 0-66.2-93.9-54.2-93.9 25.8 0 16.8 2.1 35.4 9.6 50.7-13.8 59.4-42 147.9-42 209.1 0 18.9 2.7 37.5 4.5 56.4 3.4 3.8 1.7 3.4 6.9 1.5 50.4-69 48.6-82.5 71.4-172.8 12.3 23.4 44.1 36 69.3 36 106.2 0 153.9-103.5 153.9-196.8C384 71.3 298.2 6.5 204 6.5z"/>
        </symbol>
        <symbol id="icon-share" viewBox="0 0 24 24">
            <path d="M13.803 5.33333C13.803 3.49238 15.3022 2 17.1515 2C19.0008 2 20.5 3.49238 20.5 5.33333C20.5 7.17428 19.0008 8.66667 17.1515 8.66667C16.2177 8.66667 15.3738 8.28596 14.7671 7.67347L10.1317 10.8295C10.1745 11.0425 10.197 11.2625 10.197 11.4872C10.197 11.9322 10.109 12.3576 9.94959 12.7464L15.0323 16.0858C15.6092 15.6161 16.3473 15.3333 17.1515 15.3333C19.0008 15.3333 20.5 16.8257 20.5 18.6667C20.5 20.5076 19.0008 22 17.1515 22C15.3022 22 13.803 20.5076 13.803 18.6667C13.803 18.1845 13.9062 17.7255 14.0917 17.3111L9.05007 13.9987C8.46196 14.5098 7.6916 14.8205 6.84848 14.8205C4.99917 14.8205 3.5 13.3281 3.5 11.4872C3.5 9.64623 4.99917 8.15385 6.84848 8.15385C7.9119 8.15385 8.85853 8.64725 9.47145 9.41518L13.9639 6.35642C13.8594 6.03359 13.803 5.6896 13.803 5.33333Z"></path>
        </symbol>
    </defs>
</svg>
