<svg aria-hidden="true" style="position: absolute; width: 0; height: 0; overflow: hidden;" version="1.1" xmlns="http://www.w3.org/2000/svg" xmlns:xlink="http://www.w3.org/1999/xlink">
    <defs>
        <symbol id="icon-arrow-left" viewBox="0 0 20 32">
            <path d="M0.588 14.588c-0.781 0.781-0.781 2.050 0 2.831l12 12c0.781 0.781 2.050 0.781 2.831 0s0.781-2.050 0-2.831l-10.588-10.588 10.581-10.588c0.781-0.781 0.781-2.050 0-2.831s-2.050-0.781-2.831 0l-12 12z"></path>
        </symbol>
        <symbol id="icon-arrow-right" viewBox="0 0 20 32">
            <path d="M19.413 14.588c0.781 0.781 0.781 2.050 0 2.831l-12 12c-0.781 0.781-2.050 0.781-2.831 0s-0.781-2.050 0-2.831l10.588-10.588-10.581-10.588c-0.781-0.781-0.781-2.050 0-2.831s2.050-0.781 2.831 0l12 12z"></path>
        </symbol>
        <symbol id="icon-arrow-down" viewBox="0 0 32 32">
            <path d="M14.588 25.413c0.781 0.781 2.050 0.781 2.831 0l12-12c0.781-0.781 0.781-2.050 0-2.831s-2.050-0.781-2.831 0l-10.588 10.588-10.588-10.581c-0.781-0.781-2.050-0.781-2.831 0s-0.781 2.050 0 2.831l12 12z"></path>
        </symbol>
        <symbol id="icon-arrow-up" viewBox="0 0 32 32">
            <path d="M14.588 6.588c0.781-0.781 2.050-0.781 2.831 0l12 12c0.781 0.781 0.781 2.050 0 2.831s-2.050 0.781-2.831 0l-10.588-10.588-10.588 10.581c-0.781 0.781-2.050 0.781-2.831 0s-0.781-2.050 0-2.831l12-12z"></path>
        </symbol>
        <symbol id="icon-search" viewBox="0 0 32 32">
            <path d="M26 13c0 2.869-0.931 5.519-2.5 7.669l7.913 7.919c0.781 0.781 0.781 2.050 0 2.831s-2.050 0.781-2.831 0l-7.912-7.919c-2.15 1.575-4.8 2.5-7.669 2.5-7.181 0-13-5.819-13-13s5.819-13 13-13 13 5.819 13 13zM13 22c4.971 0 9-4.029 9-9s-4.029-9-9-9v0c-4.971 0-9 4.029-9 9s4.029 9 9 9v0z"></path>
        </symbol>
        <symbol id="icon-like" viewBox="0 0 32 32">
            <path d="M20.238 2.175c-2.387-0.681-4.881 0.7-5.563 3.087l-0.356 1.25c-0.231 0.813-0.65 1.563-1.219 2.188l-3.206 3.525c-0.556 0.613-0.512 1.563 0.1 2.119s1.563 0.512 2.119-0.1l3.206-3.525c0.881-0.969 1.525-2.125 1.881-3.381l0.356-1.25c0.225-0.794 1.056-1.256 1.856-1.031s1.256 1.056 1.031 1.856l-0.356 1.25c-0.356 1.244-0.919 2.419-1.663 3.469-0.325 0.456-0.363 1.056-0.106 1.556s0.769 0.813 1.331 0.813h8.35c0.55 0 1 0.45 1 1 0 0.425-0.269 0.794-0.65 0.938-0.462 0.175-0.813 0.562-0.931 1.044s0.006 0.988 0.331 1.356c0.156 0.175 0.25 0.406 0.25 0.663 0 0.488-0.35 0.894-0.813 0.981-0.512 0.1-0.944 0.456-1.125 0.95s-0.1 1.044 0.225 1.456c0.131 0.169 0.212 0.381 0.212 0.619 0 0.419-0.262 0.788-0.637 0.931-0.719 0.281-1.106 1.056-0.9 1.8 0.025 0.081 0.038 0.175 0.038 0.269 0 0.55-0.45 1-1 1h-6.094c-0.788 0-1.563-0.231-2.219-0.669l-3.856-2.569c-0.688-0.462-1.619-0.275-2.081 0.419s-0.275 1.619 0.419 2.081l3.856 2.569c1.15 0.769 2.5 1.175 3.881 1.175h6.094c2.169 0 3.931-1.725 4-3.875 0.913-0.731 1.5-1.856 1.5-3.125 0-0.281-0.031-0.55-0.081-0.813 0.962-0.731 1.581-1.887 1.581-3.188 0-0.406-0.063-0.8-0.175-1.169 0.725-0.738 1.175-1.738 1.175-2.844 0-2.206-1.788-4-4-4h-5.769c0.294-0.65 0.544-1.325 0.738-2.012l0.356-1.25c0.681-2.388-0.7-4.881-3.087-5.563zM2 12c-1.106 0-2 0.894-2 2v14c0 1.106 0.894 2 2 2h4c1.106 0 2-0.894 2-2v-14c0-1.106-0.894-2-2-2h-4z"></path>
        </symbol>
        <symbol id="icon-clock" viewBox="0 0 32 32">
            <path d="M29 16c0 7.18-5.82 13-13 13s-13-5.82-13-13v0c0-7.18 5.82-13 13-13s13 5.82 13 13v0zM0 16c0 8.837 7.163 16 16 16s16-7.163 16-16v0c0-8.837-7.163-16-16-16s-16 7.163-16 16v0zM14.5 7.5v8.5c0 0.5 0.25 0.969 0.669 1.25l6 4c0.688 0.462 1.619 0.275 2.081-0.419s0.275-1.619-0.419-2.081l-5.331-3.55v-7.7c0-0.831-0.669-1.5-1.5-1.5s-1.5 0.669-1.5 1.5z"></path>
        </symbol>
        <symbol id="icon-user" viewBox="0 0 32 32">
            <path d="M25.406 24.975c-1.194-2.919-4.063-4.975-7.406-4.975h-4c-3.344 0-6.213 2.056-7.406 4.975-2.225-2.337-3.594-5.494-3.594-8.975 0-7.181 5.819-13 13-13s13 5.819 13 13c0 3.481-1.369 6.637-3.594 8.975zM22.9 27.019c-2 1.256-4.363 1.981-6.9 1.981s-4.9-0.725-6.906-1.981c0.456-2.294 2.481-4.019 4.906-4.019h4c2.425 0 4.45 1.725 4.906 4.019zM16 32c8.837 0 16-7.163 16-16s-7.163-16-16-16v0c-8.837 0-16 7.163-16 16s7.163 16 16 16v0zM16 15c-1.381 0-2.5-1.119-2.5-2.5s1.119-2.5 2.5-2.5v0c1.381 0 2.5 1.119 2.5 2.5s-1.119 2.5-2.5 2.5v0zM10.5 12.5c0 3.038 2.462 5.5 5.5 5.5s5.5-2.462 5.5-5.5v0c0-3.038-2.462-5.5-5.5-5.5s-5.5 2.462-5.5 5.5v0z"></path>
        </symbol>
        <symbol id="icon-twitter" viewBox="0 0 32 32">
            <path d="M28.712 9.481c0.019 0.281 0.019 0.569 0.019 0.85 0 8.669-6.6 18.663-18.663 18.663-3.719 0-7.169-1.075-10.069-2.944 0.525 0.063 1.038 0.081 1.581 0.081 3.069 0 5.888-1.038 8.144-2.8-2.881-0.063-5.3-1.95-6.131-4.55 0.406 0.063 0.813 0.1 1.237 0.1 0.588 0 1.175-0.081 1.725-0.225-3.006-0.606-5.256-3.25-5.256-6.438v-0.081c0.875 0.488 1.888 0.794 2.963 0.831-1.769-1.175-2.925-3.188-2.925-5.463 0-1.219 0.325-2.338 0.894-3.313 3.231 3.981 8.081 6.581 13.525 6.862-0.1-0.488-0.162-0.994-0.162-1.5 0-3.612 2.925-6.556 6.556-6.556 1.887 0 3.594 0.794 4.794 2.069 1.481-0.281 2.906-0.831 4.163-1.581-0.488 1.525-1.525 2.8-2.881 3.612 1.319-0.144 2.6-0.506 3.775-1.013-0.894 1.3-2.012 2.456-3.288 3.394z"></path>
        </symbol>
        <symbol id="icon-coment" viewBox="0 0 32 32">
            <path d="M7.725 24.456c0.806-0.587 1.85-0.738 2.787-0.4 1.656 0.6 3.512 0.944 5.488 0.944 7.794 0 13-5.031 13-10s-5.206-10-13-10-13 5.031-13 10c0 2 0.775 3.925 2.231 5.575 0.537 0.606 0.8 1.406 0.737 2.219-0.088 1.131-0.356 2.169-0.706 3.087 1.063-0.494 1.944-1.044 2.462-1.419zM1.325 26.994c0.113-0.169 0.219-0.337 0.319-0.506 0.625-1.038 1.219-2.4 1.337-3.931-1.875-2.131-2.981-4.738-2.981-7.556 0-7.181 7.162-13 16-13s16 5.819 16 13-7.163 13-16 13c-2.319 0-4.519-0.4-6.506-1.119-0.744 0.544-1.956 1.288-3.394 1.913-0.944 0.413-2.019 0.788-3.131 1.006-0.050 0.012-0.1 0.019-0.15 0.031-0.275 0.050-0.544 0.094-0.825 0.119-0.012 0-0.031 0.006-0.044 0.006-0.319 0.031-0.637 0.050-0.956 0.050-0.406 0-0.769-0.244-0.925-0.619s-0.069-0.8 0.213-1.087c0.256-0.262 0.487-0.544 0.706-0.844 0.106-0.144 0.206-0.288 0.3-0.431 0.006-0.012 0.012-0.019 0.019-0.031z"></path>
        </symbol>
        <symbol id="icon-fire" viewBox="0 0 28 32">
            <path d="M9.956 0.338c0.488-0.456 1.244-0.45 1.731 0.006 1.725 1.619 3.344 3.362 4.856 5.25 0.688-0.9 1.469-1.881 2.313-2.681 0.494-0.462 1.256-0.462 1.75 0.006 2.163 2.063 3.994 4.787 5.281 7.375 1.269 2.55 2.113 5.156 2.113 6.994 0 7.975-6.238 14.712-14 14.712-7.85 0-14-6.744-14-14.719 0-2.4 1.113-5.331 2.837-8.231 1.744-2.944 4.206-6.013 7.119-8.713zM14.106 26c1.581 0 2.981-0.438 4.3-1.313 2.631-1.837 3.337-5.512 1.756-8.4-0.281-0.563-1-0.6-1.406-0.125l-1.575 1.831c-0.413 0.475-1.156 0.462-1.544-0.031-1.031-1.313-2.875-3.656-3.925-4.988-0.394-0.5-1.144-0.506-1.544-0.006-2.113 2.656-3.175 4.331-3.175 6.213 0.006 4.281 3.169 6.819 7.112 6.819z"></path>
        </symbol>
        <symbol id="icon-x-twitter" viewBox="0 0 32 32">
            <path d="M24.325 3h4.412l-9.637 11.012 11.338 14.988h-8.875l-6.956-9.087-7.95 9.087h-4.419l10.306-11.781-10.869-14.219h9.1l6.281 8.306 7.269-8.306zM22.775 26.363h2.444l-15.775-20.863h-2.625l15.956 20.863z"></path>
        </symbol>
        <symbol id="icon-youtube" viewBox="0 0 36 32">
            <path d="M34.356 7.756c-0.394-1.481-1.55-2.644-3.019-3.037-2.663-0.719-13.338-0.719-13.338-0.719s-10.675 0-13.338 0.719c-1.469 0.394-2.625 1.556-3.019 3.037-0.713 2.681-0.713 8.269-0.713 8.269s0 5.587 0.713 8.269c0.394 1.481 1.55 2.594 3.019 2.988 2.662 0.719 13.338 0.719 13.338 0.719s10.675 0 13.337-0.719c1.469-0.394 2.625-1.512 3.019-2.988 0.712-2.681 0.712-8.269 0.712-8.269s0-5.588-0.712-8.269zM14.512 21.1v-10.15l8.919 5.075-8.919 5.075z"></path>
        </symbol>
        <symbol id="icon-instagram" viewBox="0 0 28 32">
            <path d="M14.006 8.813c-3.975 0-7.181 3.206-7.181 7.181s3.206 7.181 7.181 7.181 7.181-3.206 7.181-7.181-3.206-7.181-7.181-7.181zM14.006 20.663c-2.569 0-4.669-2.094-4.669-4.669s2.094-4.669 4.669-4.669 4.669 2.094 4.669 4.669-2.1 4.669-4.669 4.669zM23.156 8.519c0 0.931-0.75 1.675-1.675 1.675-0.931 0-1.675-0.75-1.675-1.675s0.75-1.675 1.675-1.675 1.675 0.75 1.675 1.675zM27.913 10.219c-0.106-2.244-0.619-4.231-2.262-5.869-1.637-1.638-3.625-2.15-5.869-2.263-2.313-0.131-9.244-0.131-11.556 0-2.237 0.106-4.225 0.619-5.869 2.256s-2.15 3.625-2.263 5.869c-0.131 2.313-0.131 9.244 0 11.556 0.106 2.244 0.619 4.231 2.263 5.869s3.625 2.15 5.869 2.262c2.313 0.131 9.244 0.131 11.556 0 2.244-0.106 4.231-0.619 5.869-2.262 1.637-1.637 2.15-3.625 2.262-5.869 0.131-2.313 0.131-9.238 0-11.55zM24.925 24.25c-0.488 1.225-1.431 2.169-2.663 2.663-1.844 0.731-6.219 0.563-8.256 0.563s-6.419 0.163-8.256-0.563c-1.225-0.488-2.169-1.431-2.663-2.663-0.731-1.844-0.563-6.219-0.563-8.256s-0.163-6.419 0.563-8.256c0.487-1.225 1.431-2.169 2.663-2.662 1.844-0.731 6.219-0.563 8.256-0.563s6.419-0.162 8.256 0.563c1.225 0.487 2.169 1.431 2.663 2.662 0.731 1.844 0.563 6.219 0.563 8.256s0.169 6.419-0.563 8.256z"></path>
        </symbol>
        <symbol id="icon-square-facebook" viewBox="0 0 28 32">
            <path d="M4 2c-2.206 0-4 1.794-4 4v20c0 2.206 1.794 4 4 4h6.137v-9.113h-3.3v-4.887h3.3v-2.106c0-5.444 2.463-7.969 7.813-7.969 1.012 0 2.762 0.2 3.481 0.4v4.425c-0.375-0.037-1.031-0.063-1.85-0.063-2.625 0-3.637 0.994-3.637 3.575v1.738h5.225l-0.9 4.887h-4.331v9.113h8.063c2.206 0 4-1.794 4-4v-20c0-2.206-1.794-4-4-4h-20z"></path>
        </symbol>
        <symbol id="icon-facebook" viewBox="0 0 32 32">
            <path d="M32 16c0-8.838-7.163-16-16-16s-16 7.162-16 16c0 7.5 5.169 13.8 12.137 15.531v-10.644h-3.3v-4.887h3.3v-2.106c0-5.444 2.463-7.969 7.813-7.969 1.012 0 2.762 0.2 3.481 0.4v4.425c-0.375-0.037-1.031-0.063-1.85-0.063-2.625 0-3.637 0.994-3.637 3.575v1.738h5.225l-0.9 4.887h-4.331v10.994c7.925-0.956 14.063-7.7 14.063-15.881v0z"></path>
        </symbol>
        <symbol id="icon-light" viewBox="0 0 24 24">
            <g stroke="currentColor" stroke-width="2" stroke-linecap="round">
                <line x1="12" y1="17" x2="12" y2="20" transform="rotate(0,12,12)" />
                <line x1="12" y1="17" x2="12" y2="20" transform="rotate(45,12,12)" />
                <line x1="12" y1="17" x2="12" y2="20" transform="rotate(90,12,12)" />
                <line x1="12" y1="17" x2="12" y2="20" transform="rotate(135,12,12)" />
                <line x1="12" y1="17" x2="12" y2="20" transform="rotate(180,12,12)" />
                <line x1="12" y1="17" x2="12" y2="20" transform="rotate(225,12,12)" />
                <line x1="12" y1="17" x2="12" y2="20" transform="rotate(270,12,12)" />
                <line x1="12" y1="17" x2="12" y2="20" transform="rotate(315,12,12)" />
            </g>
            <circle fill="currentColor" cx="12" cy="12" r="5" />
        </symbol>
        <symbol id="icon-dark" viewBox="0 0 24 24">
            <path fill="currentColor" d="M15.1,14.9c-3-0.5-5.5-3-6-6C8.8,7.1,9.1,5.4,9.9,4c0.4-0.8-0.4-1.7-1.2-1.4C4.6,4,1.8,7.9,2,12.5c0.2,5.1,4.4,9.3,9.5,9.5c4.5,0.2,8.5-2.6,9.9-6.6c0.3-0.8-0.6-1.7-1.4-1.2C18.6,14.9,16.9,15.2,15.1,14.9z" />
        </symbol>
    </defs>
</svg>
